<?xml version="1.0" encoding="utf-8"?>
<!-- Generator: Adobe Illustrator 22.0.0, SVG Export Plug-In . SVG Version: 6.00 Build 0)  -->
<svg version="1.1" id="Layer_1" xmlns="http://www.w3.org/2000/svg" xmlns:xlink="http://www.w3.org/1999/xlink" x="0px" y="0px"
	 viewBox="0 0 430.9 125.7" style="enable-background:new 0 0 430.9 125.7;" xml:space="preserve">
<style type="text/css">
	.st0{fill-rule:evenodd;clip-rule:evenodd;}
	.st1{fill:#FFFFFF;}
	.st2{fill:#EF3E42;}
</style>
<g>
	<path d="M146.5,65.1v-6.9h-0.7c-0.3,2.2-0.8,2.8-3.3,2.8h-4.3v-6.6c0-0.9,0.2-1,1-1h4.1c3.3,0,4.1,0.5,4.5,3.1h0.8l-0.1-4.3h-15.9
		v0.6c1.9,0.1,2.6,0.3,2.6,2.7v12.9c0,2.5-0.4,2.9-2.6,3V72h8.4v-0.6c-2.1-0.1-2.7-0.4-2.7-2.7v-6.5l4.3,0.1c2.2,0,3,0.3,3.3,2.8
		H146.5L146.5,65.1z"/>
	<path d="M149.3,72.4c0.6,0,1.7-0.5,1.7-1.6c0-0.9-0.8-1.7-1.7-1.7c-0.9,0-1.6,0.8-1.6,1.7C147.7,72,148.7,72.4,149.3,72.4
		L149.3,72.4z"/>
	<path d="M179.8,52.2h-5.9v0.6c1,0.1,2.1,0.2,2.1,1.4c0,0.6-0.2,1.5-0.5,2.1l-3.7,10.1l-3.9-10.2c-0.4-1.2-0.8-1.8-0.8-2.3
		c0-1.1,1.4-1.1,2.3-1.1v-0.6h-8v0.6c1.6,0,2,0.2,3,2.7l1,2.5l-3.2,8.4l-4.3-11.2c-0.1-0.4-0.3-0.9-0.3-1.3c0-0.8,0.6-1,1.9-1v-0.6
		h-7.3v0.6c1.7,0.1,2.1,1,3.1,3.5c1.1,3,4.2,11.5,5.8,16h0.4l4.6-12.6c1.3,3.3,3.7,9.5,4.8,12.6h0.4c1.8-5.8,4.2-12.2,6.2-17.7
		c0.4-1.2,0.9-1.6,2.4-1.8V52.2L179.8,52.2z"/>
	<path d="M177.9,72.3c0.6,0,1.7-0.5,1.7-1.6c0-0.9-0.8-1.7-1.7-1.7c-0.9,0-1.6,0.7-1.6,1.7C176.2,71.8,177.3,72.3,177.9,72.3
		L177.9,72.3z"/>
	<path d="M215.6,52.1h-5.9v0.6c1,0.1,2.1,0.2,2.1,1.4c0,0.6-0.2,1.5-0.5,2.2l-3.7,10.1l-3.9-10.2c-0.4-1.2-0.8-1.8-0.8-2.3
		c0-1.1,1.4-1.1,2.3-1.1v-0.6h-8v0.6c1.6,0,2,0.2,3,2.7l1,2.5l-3.2,8.4L193.6,55c-0.1-0.4-0.3-0.9-0.3-1.3c0-0.8,0.6-1,1.9-1v-0.6
		h-7.3v0.6c1.7,0.1,2.1,1,3.1,3.5c1.1,3,4.2,11.5,5.8,16h0.4l4.6-12.6c1.3,3.3,3.7,9.5,4.8,12.6h0.4c1.8-5.8,4.2-12.2,6.2-17.7
		c0.4-1.2,0.9-1.6,2.4-1.8V52.1L215.6,52.1z"/>
	<path d="M234.2,66.8h-0.8c-1.3,3-2.8,3.9-6.6,3.9c-4.5,0-4.5,0-4.5-1.3v-7.4l4.6,0.1c2.5,0,2.9,0.5,3.3,2.8h0.7V58h-0.7
		c-0.3,2.1-0.6,2.8-3.3,2.8h-4.6v-6.6c0-1,0.4-1,1-1h4c3.3,0,4.1,0.5,4.5,3.1h0.8l-0.1-4.3h-15.9v0.6c1.9,0.1,2.6,0.3,2.6,2.7v13.3
		c0,2.3-0.7,2.6-2.6,2.7v0.6h16.1L234.2,66.8L234.2,66.8z"/>
	<path class="st0" d="M234.8,52.5c2.4,0.1,2.9,0.5,2.9,2.7v13.3c0,2.1-0.4,2.6-2.9,2.7v0.6h10c6.6,0,7.2-4.1,7.2-5.3
		c0-3.1-2.4-4.6-5-5.1v-0.1c1.3-0.3,4-1,4-4.3c0-4.6-5.2-5.1-7.8-5.1h-8.4V52.5L234.8,52.5z M240.7,62c2.9,0,3.8,0.1,4.8,0.4
		c1.6,0.5,3,1.5,3,3.9c0,4-3.6,4.3-5.6,4.3c-1.7,0-2.3-0.1-2.3-1.2V62L240.7,62z M240.7,54c0-0.4,0.1-0.9,0.7-0.9c0.3,0,0.7,0,1.3,0
		c2.1,0,5.2,0.6,5.2,4.1c0,3.6-3.6,3.6-4.4,3.6l-2.8,0V54L240.7,54z"/>
	<path class="st0" d="M253.1,52.5c2.4,0.1,2.9,0.5,2.9,2.7v13.3c0,2.1-0.4,2.6-2.9,2.7v0.6h10c6.6,0,7.2-4.1,7.2-5.3
		c0-3.1-2.4-4.6-5-5.1v-0.1c1.3-0.3,4-1,4-4.3c0-4.6-5.2-5.1-7.8-5.1h-8.4V52.5L253.1,52.5z M259,62c2.9,0,3.8,0.1,4.8,0.4
		c1.6,0.5,3,1.5,3,3.9c0,4-3.6,4.3-5.6,4.3c-1.7,0-2.3-0.1-2.3-1.2V62L259,62z M259,54c0-0.4,0.1-0.9,0.7-0.9c0.3,0,0.7,0,1.3,0
		c2.1,0,5.2,0.6,5.2,4.1c0,3.6-3.6,3.6-4.4,3.6l-2.8,0V54L259,54z"/>
	<path d="M297.7,58.5l-0.3-6.7h-0.6c-0.2,1-1.2,1-1.4,1c-0.7,0-2.6-1-5.3-1c-5.1,0-10.2,3.6-10.2,10.3c0,7.4,5.2,10.3,10,10.3
		c5.5,0,8.1-3.7,8.1-3.8l-0.5-0.5c-0.9,0.9-3.1,3-6.8,3c-3.8,0-7.3-2.6-7.3-8.9c0-4.3,1.3-6.2,2.5-7.4c1.3-1.2,3-1.8,4.5-1.8
		c3.7,0,5.8,2.4,6.6,5.5H297.7L297.7,58.5z"/>
	<path class="st0" d="M309.2,72.4c5.4,0,9.8-3.9,9.8-10.3c0-6.9-4.9-10.3-9.8-10.3s-9.8,3.5-9.8,10.3
		C299.4,68.4,303.8,72.4,309.2,72.4L309.2,72.4z M309.2,71.3c-3.3,0-6.4-2.7-6.4-9.2c0-6.8,3.3-9.2,6.4-9.2c3,0,6.4,2.4,6.4,9.2
		C315.6,68.6,312.5,71.3,309.2,71.3L309.2,71.3z"/>
	<path d="M343.8,52h-5.9l-6.6,15.1L324.3,52h-5.9v0.6c2.2,0.1,2.8,0.4,2.8,2.7v12.1c0,3.2-0.6,3.7-2.9,3.8v0.6h7v-0.6
		c-2.2-0.1-2.8-0.7-2.8-3.8V55.5h0.1l7.4,16.3h0.4l7.6-17h0.1v13.4c0,2.4-0.4,2.9-2.7,3v0.6h8.4v-0.6c-1.9-0.1-2.6-0.4-2.6-2.7V55.3
		c0-2.4,0.7-2.5,2.6-2.7V52L343.8,52z"/>
	<path class="st0" d="M345,52.7c2.2,0.2,2.5,0.6,2.5,2.7v12.9c0,2.1,0,2.8-2.5,3v0.6h8.4v-0.6c-2.3-0.1-2.8-0.5-2.8-2.7v-5.4
		c0.7,0.1,1.3,0.1,2,0.1c3.1,0,5-0.5,6.3-1.8c0.5-0.5,1.8-1.7,1.8-4c0-3.8-3.7-5.4-7.8-5.4H345V52.7L345,52.7z M350.6,54.3
		c0-1,0.3-1,1.2-1c1.3,0,5.7,0.1,5.7,4.3c0,4.5-4,4.5-5.1,4.5c-0.6,0-1.2,0-1.8-0.1V54.3L350.6,54.3z"/>
	<path class="st0" d="M377.8,71.5c-1.3-0.1-1.7-0.4-2.7-2.6l-7.4-17H367l-6.2,14.7c-0.6,1.3-1.5,3.5-2.2,4.2c-0.5,0.6-1,0.6-1.5,0.7
		v0.6h5.9v-0.6c-0.6,0-2,0-2-1.3c0-0.3,0.1-0.7,0.2-1.1l1.4-3.5h7.8l1.2,2.9c0.2,0.4,0.6,1.4,0.6,1.9c0,1.1-1,1.1-2.1,1.1v0.6h7.6
		V71.5L377.8,71.5z M363.1,64.4l3.4-8.2l3.5,8.2H363.1L363.1,64.4z"/>
	<path d="M400,52.3h-7v0.6c2,0.2,2.9,0.4,2.9,3.8v10h-0.1l-11.4-14.4h-5.1v0.6c1.2,0,1.7,0.2,2.9,1.6v13.2c0,3.2-0.6,3.7-2.9,3.8
		v0.6h7v-0.6c-2.2-0.1-2.8-0.7-2.8-3.8V56h0.1l13.1,16.4h0.5V56.7c0-3.5,1-3.6,2.8-3.8V52.3L400,52.3z"/>
	<path d="M421.2,52.2h-6.5v0.6c0.9,0,2.1,0.1,2.1,1c0,0.4-0.2,0.8-0.4,1.1l-4.3,6.8l-4.4-6.6c-0.3-0.4-0.5-1-0.5-1.3
		c0-0.8,0.7-0.9,2.1-0.9v-0.6h-8.4v0.6c1.3,0.1,1.8,0.2,4.8,4.7l3.9,5.7v5.2c0,2.3-0.1,3-3,3V72h9.1v-0.6c-2.7,0-3.1-0.5-3.1-2.7V63
		l4.4-6.8c2.1-3.2,3-3.3,4.1-3.4V52.2L421.2,52.2z"/>
	<g>
		<g>
			<path class="st1" d="M15.3,62.7c0-26.5,21.5-48,48-48c26.5,0,48,21.5,48,48c0,26.5-21.5,48-48,48C36.8,110.7,15.3,89.2,15.3,62.7
				L15.3,62.7z"/>
			<path d="M63.3,115.2c-29,0-52.5-23.6-52.5-52.5c0-29,23.6-52.5,52.5-52.5c29,0,52.5,23.6,52.5,52.5
				C115.8,91.7,92.2,115.2,63.3,115.2z M63.3,19.3c-24,0-43.5,19.5-43.5,43.5c0,24,19.5,43.5,43.5,43.5s43.5-19.5,43.5-43.5
				C106.7,38.7,87.2,19.3,63.3,19.3z"/>
		</g>
		<path class="st2" d="M60.3,23.2c1.2,0.8,2.4,1.6,3.1,3.1c-1.7,1.3-3.7,2.3-5.4,3.6c-1.1,0.7,0.1,2.1-0.8,3c-0.8,1.4-3.6,1.9-2.6,4
			c1.5,3.1,4.3,4.8,7.3,5.3c1.5,0.2,3.1,0.4,4.4,1.5c3.6-1.1,7-1.7,10.6-2c2.2-0.1,4.6-0.3,6.8-0.1c0.6-0.1,0.9-0.6,0.9-1.1
			c0.1-0.5-0.3-1.2,0.2-1.6l6.9-3.9l5.8,10.3c1.7,3,3.4,6,5.2,9.1l-7.4,4.2c-0.8-0.5-1.4-1.5-2.3-1.6L92.9,57c-2.4,5-6,9.3-10,13.1
			C74.7,78.4,61.7,84.2,50.7,85c-2.4,0.3-4.9,0.2-7.3,0.3c-0.7,0.7,0,1.8,0,2.7l-0.2,0.2l-7.3,4.1l-11-19.5l0-0.1l7.4-4.1
			c1,0.1,1.5,1.3,2.6,0.8c1.1-1,1.2-2.5,2.1-3.5c2.3-3.9,5.6-7.5,9-10.8c0.2-1,0-2,0.4-2.8c1.8-3,2-6.8,0.4-10.1
			c-0.4-0.7-0.8-1.1-1.5-1.4c-1.4-0.1-2.9,0.8-4.3,1c-0.8-0.1-1.4-1-2.3-0.9c-2,0.7-3.9,2-5.8,2.8c-1.1-2.4-1.2-5.3,0.2-7.5
			c2.2-2.9,6.1-3.1,9.2-4.3c2.4-0.4,4.7-1.9,6.5-3.4c2.3-2,4.2-4.5,7.4-5.5C57.5,22.4,59.1,22.6,60.3,23.2L60.3,23.2z"/>
		<path class="st1" d="M59.1,49.2c0.8,1.3,1.5,2.7,2.3,4c-1.5,0.9-4.2,2.6-4.8,3.1c0.2,0.3,3,5.3,3,5.3l4-2.1l2.5,4.3
			c-1.3,0.8-2.6,1.6-3.9,2.3c1.1,2,2.3,4.2,3.5,6.2c1.7-0.7,3.4-1.6,5.1-2.6l2.4,4.2c-3,2-6.4,3.5-9.5,4.7L50.1,54.9
			C52.9,52.9,55.8,50.8,59.1,49.2L59.1,49.2z"/>
		<path class="st1" d="M64.7,46.6c1.5-0.5,3.1-1,4.6-0.9c2.2,0.3,4.8,1.4,5.8,4.1c0.7,1.9,0.6,3.6-0.3,5.3c0.6,0.1,1.1,0.2,1.5,0.3
			c2.5,0.8,5,2.8,5.4,5.8c0.5,3.2-0.2,6-2.5,8.1c-1.3,1.4-3,2.6-4.6,3.7l-8.3-14.4l-5.7-10.3C61.9,47.7,63.2,47.2,64.7,46.6
			L64.7,46.6z"/>
		<path class="st1" d="M49.5,55.5l3.9,11.4c0,0,4.4,13,4.7,13.9c-0.9,0.3-1.9,0.6-2.8,0.7c-2.4-2.3-4.8-4.8-7.2-7.2
			c0.7,2.7,1.5,5.5,2.4,8.2c-0.8,0.2-1.6,0.2-2.4,0.2c-1.8-0.1-3.7-0.5-5.4-0.7c-1.9-0.6-3.7-1.7-5-3.6c-1.3-2-1.6-4.2-1.3-6.3
			c0.2-1.2,0.9-2.5,1.5-3.6c1.1,1.1,2.2,2,3.2,3.2c-0.7,1.4-0.9,3.1,0.1,4.5c0.8,1,1.9,1.4,3.1,1.5l-0.3-1.3l-3-10.5
			c-0.1-0.5-0.4-0.9-0.4-1.4c0.5-0.9,1.2-1.7,2-2.5c1.9,1.9,3.8,3.8,5.7,5.7l0.1-0.3c-0.9-2.8-1.8-5.6-2.7-8.4
			C46.5,57.6,49.4,55.3,49.5,55.5L49.5,55.5z"/>
		<path class="st1" d="M83.7,43.7c1.4,0.5,3,1.5,3.1,3.3c0.1,0.7-0.2,1.5-0.4,2.1c1.4,0.1,3,0.5,3.7,2.2c1.5,3-0.2,6.2-1.6,8.6
			c-0.9,1.4-2,2.8-3.2,4.1L74.1,44.4C77.3,43.5,80.6,43.2,83.7,43.7L83.7,43.7z"/>
		<path class="st2" d="M69.9,50c1,0.6,1.8,1.9,1.9,3.1c-0.1,1.2-0.7,2.2-1.6,2.9l-3.3-5.9C67.9,49.8,68.9,49.4,69.9,50L69.9,50z"/>
		<path class="st2" d="M83.1,47.1c0.6,1.2-0.4,2.3-1.1,3.2c-0.9-1.5-1.3-2.3-2-3.5C81.1,46.5,82.4,46.1,83.1,47.1L83.1,47.1z"/>
		<path class="st2" d="M86.9,53.3c0.6,2.1-0.9,3.9-0.9,3.9l-2.5-4.4C84.7,52.5,86.1,52.2,86.9,53.3L86.9,53.3z"/>
		<path class="st2" d="M75.8,59.9c1,0.6,1.6,1.9,1.8,3c0,1.3-0.8,2.4-1.5,3.4c0,0-2.6-4.4-3.8-6.6C73.5,59.1,74.7,59.4,75.8,59.9
			L75.8,59.9z"/>
	</g>
	<g>
		<path d="M103.6,108.1c-0.6,0.6-1.3,0.9-2.2,0.9c-0.9,0-1.6-0.3-2.2-0.9c-0.6-0.6-0.9-1.3-0.9-2.2c0-0.9,0.3-1.6,0.9-2.2
			c0.6-0.6,1.3-0.9,2.2-0.9c0.9,0,1.6,0.3,2.2,0.9c0.6,0.6,0.9,1.3,0.9,2.2C104.5,106.7,104.2,107.5,103.6,108.1z M99.5,104
			c-0.5,0.5-0.8,1.2-0.8,1.9c0,0.7,0.3,1.4,0.8,1.9c0.5,0.5,1.2,0.8,1.9,0.8c0.7,0,1.4-0.3,1.9-0.8c0.5-0.5,0.8-1.2,0.8-1.9
			c0-0.7-0.3-1.4-0.8-1.9c-0.5-0.5-1.2-0.8-1.9-0.8C100.7,103.2,100,103.5,99.5,104z M101.3,104.2c0.4,0,0.7,0,0.9,0.1
			c0.4,0.1,0.5,0.4,0.5,0.9c0,0.3-0.1,0.5-0.3,0.7c-0.1,0.1-0.3,0.1-0.5,0.2c0.3,0,0.5,0.2,0.6,0.3c0.1,0.2,0.2,0.4,0.2,0.5v0.3
			c0,0.1,0,0.2,0,0.3c0,0.1,0,0.2,0,0.2l0,0h-0.6c0,0,0,0,0,0c0,0,0,0,0,0l0-0.1v-0.3c0-0.4-0.1-0.7-0.3-0.8
			c-0.1-0.1-0.4-0.1-0.7-0.1h-0.5v1.3h-0.6v-3.4H101.3z M102,104.7c-0.2-0.1-0.4-0.1-0.7-0.1h-0.5v1.2h0.5c0.3,0,0.4,0,0.6-0.1
			c0.2-0.1,0.4-0.3,0.4-0.5C102.2,105,102.1,104.8,102,104.7z"/>
	</g>
</g>
</svg>
